<?xml version="1.0" standalone="no"?>
<!DOCTYPE svg PUBLIC "-//W3C//DTD SVG 20010904//EN"
 "http://www.w3.org/TR/2001/REC-SVG-20010904/DTD/svg10.dtd">
<svg version="1.0" xmlns="http://www.w3.org/2000/svg"
 width="225.000000pt" height="225.000000pt" viewBox="0 0 225.000000 225.000000"
 preserveAspectRatio="xMidYMid meet">
<metadata>
Created by potrace 1.14, written by Peter Selinger 2001-2017
</metadata>
<g transform="translate(0.000000,225.000000) scale(0.100000,-0.100000)"
fill="#000000" stroke="none">
<path d="M1324 1591 c-194 -92 -220 -347 -48 -486 28 -23 101 -64 164 -91 136
-59 180 -95 180 -148 0 -52 -15 -75 -63 -97 -84 -38 -178 -14 -252 65 l-40 43
-82 -46 c-46 -25 -83 -49 -83 -53 0 -3 18 -29 40 -56 76 -97 167 -141 311
-149 100 -6 171 7 243 45 54 29 107 89 125 141 14 44 14 163 -1 212 -25 86
-123 165 -287 233 -112 47 -161 88 -161 138 0 73 69 113 150 89 35 -10 73 -44
82 -72 4 -11 168 88 168 101 0 23 -91 106 -145 131 -52 25 -72 29 -150 29 -78
0 -98 -4 -151 -29z"/>
<path d="M768 1211 l-3 -399 -24 -26 c-52 -55 -149 -39 -197 33 l-27 41 -59
-33 c-32 -17 -71 -42 -86 -53 l-26 -22 29 -42 c63 -91 163 -140 284 -140 142
0 245 57 292 162 24 53 24 55 27 466 l3 412 -105 0 -105 0 -3 -399z"/>
</g>
</svg>
